<svg xmlns="http://www.w3.org/2000/svg" viewBox="0 0 48 48" fill="none">
  <defs>
    <linearGradient id="shieldGrad" x1="0" y1="0" x2="48" y2="48">
      <stop offset="0%" stop-color="#6366f1"/>
      <stop offset="100%" stop-color="#8b5cf6"/>
    </linearGradient>
    <linearGradient id="checkGrad" x1="14" y1="20" x2="34" y2="34">
      <stop offset="0%" stop-color="#ffffff"/>
      <stop offset="100%" stop-color="#e0e7ff"/>
    </linearGradient>
  </defs>
  <path d="M24 2L6 10v12c0 11.1 7.7 21.5 18 24 10.3-2.5 18-12.9 18-24V10L24 2z" fill="url(#shieldGrad)" opacity="0.95"/>
  <path d="M24 4.5L8 11.5v10.5c0 10 7 19.5 16 21.8 9-2.3 16-11.8 16-21.8V11.5L24 4.5z" fill="#0f172a" opacity="0.3"/>
  <path d="M24 4.5L8 11.5v10.5c0 10 7 19.5 16 21.8 9-2.3 16-11.8 16-21.8V11.5L24 4.5z" fill="none" stroke="url(#shieldGrad)" stroke-width="0.5" opacity="0.5"/>
  <path d="M15 24l6 6 12-12" stroke="url(#checkGrad)" stroke-width="3.5" stroke-linecap="round" stroke-linejoin="round" fill="none"/>
  <line x1="14" y1="38" x2="34" y2="38" stroke="#f97316" stroke-width="1.5" stroke-linecap="round" opacity="0.7"/>
  <line x1="17" y1="40" x2="31" y2="40" stroke="#22c55e" stroke-width="1.5" stroke-linecap="round" opacity="0.7"/>
</svg>
